# xmcd CD database file
#
# Track frame offsets:
#	150
#	19970
#	42887
#	64577
#	83600
#	105302
#	128935
#	148815
#	167837
#	186967
#
# Disc length: 2808 seconds
#
# Revision: 0
# Processed by: cddbd v1.5.1PL0 Copyright (c) Steve Scherf et al.
# Submitted via: CDex 1.51
#
DISCID=830af60a
DTITLE=伊藤銀次 - ゲット・ハッピー
DYEAR=1986
DGENRE=JPop
TTITLE0=チェリー・ナイト
TTITLE1=7月のオーロラ
TTITLE2=ラヴ・イズ・ヤング・ハート
TTITLE3=破りとられたハッピー・エンド
TTITLE4=夏のシャングリラ
TTITLE5=キッズ・アー・オールライト
TTITLE6=ティナ
TTITLE7=ダンスの雨に打たれて
TTITLE8=フラッシュ・イン・ザ・ダーク
TTITLE9=Angel
EXTD=YEAR: 1986
EXTT0=
EXTT1=
EXTT2=
EXTT3=
EXTT4=
EXTT5=
EXTT6=
EXTT7=
EXTT8=
EXTT9=
PLAYORDER=
